<?xml version="1.0" standalone="no"?>
<!DOCTYPE svg PUBLIC "-//W3C//DTD SVG 20010904//EN"
 "http://www.w3.org/TR/2001/REC-SVG-20010904/DTD/svg10.dtd">
<svg version="1.0" xmlns="http://www.w3.org/2000/svg"
 width="480.000000pt" height="480.000000pt" viewBox="0 0 480.000000 480.000000"
 preserveAspectRatio="xMidYMid meet">
<metadata>
Created by potrace 1.14, written by Peter Selinger 2001-2017
</metadata>
<g transform="translate(0.000000,480.000000) scale(0.100000,-0.100000)"
fill="#000000" stroke="none">
<path d="M1876 4665 c-31 -13 -72 -35 -91 -49 -34 -26 -105 -107 -105 -120 0
-4 -10 -21 -22 -38 -80 -111 -178 -163 -313 -167 -135 -4 -215 -34 -290 -109
-77 -77 -101 -138 -109 -277 -3 -49 -10 -104 -15 -120 -26 -91 -84 -161 -190
-230 -132 -85 -194 -188 -192 -321 1 -69 10 -101 57 -199 25 -52 49 -116 53
-142 4 -27 8 -50 8 -53 5 -32 -26 -133 -64 -209 -41 -82 -47 -103 -51 -171 -3
-57 0 -92 13 -132 34 -100 69 -141 195 -225 84 -57 109 -83 141 -145 32 -63
39 -94 45 -198 12 -216 118 -335 337 -379 4 0 12 -1 17 -1 7 0 10 -219 10
-636 0 -588 1 -636 17 -630 15 6 727 221 898 271 44 13 102 31 129 39 41 13
55 13 90 2 22 -8 84 -26 136 -41 52 -15 113 -34 135 -41 22 -7 110 -34 195
-59 85 -26 198 -59 250 -75 52 -15 148 -44 212 -63 l118 -34 2 635 3 635 35 3
c85 10 179 58 236 123 31 34 72 120 79 163 3 18 7 65 9 104 5 89 21 146 52
196 40 63 55 78 142 135 150 100 203 191 199 341 -2 82 -5 93 -50 182 -84 168
-83 247 3 420 59 118 67 210 27 314 -28 75 -81 135 -175 198 -150 101 -188
167 -198 343 -6 102 -16 142 -51 203 -66 116 -178 177 -333 181 -112 4 -210
41 -276 106 -11 11 -43 54 -71 95 -67 99 -93 124 -172 163 -59 29 -74 32 -151
32 -82 -1 -89 -3 -200 -55 -111 -53 -118 -55 -200 -55 -82 0 -90 2 -185 48
-121 59 -122 59 -212 62 -55 2 -84 -3 -127 -20z"/>
</g>
</svg>
